<svg width="20" height="21" viewBox="0 0 20 21" fill="none" xmlns="http://www.w3.org/2000/svg">
<g clip-path="url(#clip0_529_665)">
<path d="M18.273 7.11964L13.314 6.39893L11.0972 1.90479C11.0367 1.78175 10.9371 1.68214 10.814 1.62159C10.5054 1.46925 10.1304 1.5962 9.97615 1.90479L7.75935 6.39893L2.80036 7.11964C2.66364 7.13917 2.53864 7.20362 2.44294 7.30128C2.32724 7.42019 2.26348 7.58018 2.26568 7.74608C2.26788 7.91199 2.33585 8.07023 2.45466 8.18604L6.04255 11.6841L5.19489 16.6235C5.17502 16.7384 5.18773 16.8566 5.2316 16.9647C5.27546 17.0727 5.34872 17.1663 5.44307 17.2348C5.53742 17.3033 5.64909 17.3441 5.7654 17.3524C5.88171 17.3607 5.99803 17.3362 6.10114 17.2817L10.5367 14.9497L14.9722 17.2817C15.0933 17.3462 15.234 17.3677 15.3687 17.3442C15.7086 17.2856 15.9371 16.9634 15.8785 16.6235L15.0308 11.6841L18.6187 8.18604C18.7164 8.09034 18.7808 7.96534 18.8004 7.82862C18.8531 7.48682 18.6148 7.17042 18.273 7.11964Z" fill="#F6D731"/>
</g>
<defs>
<clipPath id="clip0_529_665">
<rect width="20" height="20" fill="white" transform="translate(0 0.500488)"/>
</clipPath>
</defs>
</svg>
