<svg width="20" height="19" viewBox="0 0 20 19" fill="none" xmlns="http://www.w3.org/2000/svg">
<path d="M17.7556 11.1888L17.7555 11.1888L17.7517 11.194C16.7246 12.6114 15.4916 13.8403 14.2193 14.923L14.2108 14.9302L14.2027 14.9378C13.6199 15.4802 12.6697 16.2941 11.7803 16.9779C11.3351 17.3201 10.9132 17.6235 10.5649 17.8428C10.3903 17.9527 10.2421 18.0364 10.1238 18.0927C10.067 18.1197 10.0251 18.1365 9.99628 18.1468C9.81899 18.0898 9.59712 17.9574 9.33289 17.7588C9.18558 17.6481 9.0405 17.5291 8.89433 17.4091L8.88701 17.4031C8.74867 17.2895 8.60489 17.1715 8.47127 17.0733C5.69518 14.9628 2.79025 12.4542 1.32774 9.75448C0.115554 7.17408 0.165361 4.09907 1.93537 2.23594C4.28728 0.129656 7.81864 0.552807 9.60117 2.74799L9.99951 3.23855L10.3853 2.73807C10.8628 2.11863 11.4469 1.63189 12.1416 1.27451C15.0134 0.13969 17.9479 1.30615 19.144 3.85564C19.979 6.47098 19.2745 9.1486 17.7556 11.1888Z" fill="#142B33" fill-opacity="0.4" stroke="white"/>
</svg>
