<svg width="14" height="17" viewBox="0 0 14 17" fill="none" xmlns="http://www.w3.org/2000/svg">
<g clip-path="url(#clip0_522_575)">
<path d="M13.4873 7.79048L9.06267 3.36531C8.51507 2.8193 7.77331 2.5127 7.00001 2.5127C6.2267 2.5127 5.48495 2.8193 4.93734 3.36531L0.512757 7.79048C0.349672 7.95252 0.220373 8.14532 0.132355 8.3577C0.0443376 8.57009 -0.000647734 8.79783 7.04637e-06 9.02773V14.7543C7.04637e-06 15.2184 0.184382 15.6636 0.51257 15.9917C0.840759 16.3199 1.28588 16.5043 1.75001 16.5043H12.25C12.7141 16.5043 13.1593 16.3199 13.4874 15.9917C13.8156 15.6636 14 15.2184 14 14.7543V9.02773C14.0007 8.79783 13.9557 8.57009 13.8677 8.3577C13.7796 8.14532 13.6503 7.95252 13.4873 7.79048ZM8.75001 15.3376H5.25001V13.0428C5.25001 12.5787 5.43438 12.1336 5.76257 11.8054C6.09076 11.4772 6.53588 11.2928 7.00001 11.2928C7.46414 11.2928 7.90926 11.4772 8.23744 11.8054C8.56563 12.1336 8.75001 12.5787 8.75001 13.0428V15.3376ZM12.8333 14.7543C12.8333 14.909 12.7719 15.0574 12.6625 15.1668C12.5531 15.2762 12.4047 15.3376 12.25 15.3376H9.91667V13.0428C9.91667 12.2693 9.60938 11.5274 9.0624 10.9804C8.51542 10.4334 7.77356 10.1261 7.00001 10.1261C6.22646 10.1261 5.48459 10.4334 4.93761 10.9804C4.39063 11.5274 4.08334 12.2693 4.08334 13.0428V15.3376H1.75001C1.5953 15.3376 1.44692 15.2762 1.33753 15.1668C1.22813 15.0574 1.16667 14.909 1.16667 14.7543V9.02773C1.16721 8.87313 1.22862 8.72497 1.33759 8.61531L5.76217 4.19189C6.091 3.8646 6.53606 3.68086 7.00001 3.68086C7.46395 3.68086 7.90902 3.8646 8.23784 4.19189L12.6624 8.61706C12.771 8.72629 12.8323 8.87374 12.8333 9.02773V14.7543Z" fill="#142B33"/>
</g>
<defs>
<clipPath id="clip0_522_575">
<rect width="14" height="14" fill="white" transform="translate(0 2.50049)"/>
</clipPath>
</defs>
</svg>
