<svg width="14" height="14" viewBox="0 0 14 14" fill="none" xmlns="http://www.w3.org/2000/svg">
<path d="M1.31246 4.96924H12.6875M0.968475 5.27926L6.64914 12.121C6.69042 12.171 6.74354 12.2115 6.80437 12.2393C6.86521 12.2672 6.93213 12.2817 6.99996 12.2817C7.06779 12.2817 7.13471 12.2672 7.19555 12.2393C7.25638 12.2115 7.30949 12.171 7.35078 12.121L13.0314 5.27926C13.0873 5.21173 13.1197 5.13002 13.1243 5.04498C13.129 4.95994 13.1056 4.87561 13.0574 4.80318L11.1305 1.915C11.0908 1.85523 11.0354 1.80587 10.9694 1.77161C10.9034 1.73734 10.829 1.71932 10.7534 1.71924H3.24648C3.17087 1.71932 3.09654 1.73734 3.03054 1.77161C2.96455 1.80587 2.90908 1.85523 2.86941 1.915L0.942499 4.80318C0.894279 4.87561 0.870939 4.95994 0.875579 5.04498C0.880219 5.13002 0.91262 5.21173 0.968475 5.27926V5.27926Z" stroke="white" stroke-width="0.826531" stroke-linecap="round" stroke-linejoin="round"/>
<path d="M10.9375 2.12549L9.625 4.96924L7 1.71924M3.0625 2.12549L4.375 4.96924L7 1.71924M7 11.8755L4.375 4.96924M7 11.8755L9.625 4.96924" stroke="white" stroke-width="0.826531" stroke-linecap="round" stroke-linejoin="round"/>
</svg>
