<svg width="18" height="18" viewBox="0 0 18 18" fill="none" xmlns="http://www.w3.org/2000/svg">
<path fill-rule="evenodd" clip-rule="evenodd" d="M9 0C4.02955 0 0 4.02955 0 9C0 13.9705 4.02955 18 9 18C13.9705 18 18 13.9705 18 9C18 4.02955 13.9705 0 9 0ZM10.8057 6.30573C10.9548 6.15142 11.0372 5.94474 11.0354 5.73022C11.0335 5.51569 10.9475 5.31048 10.7958 5.15878C10.6441 5.00709 10.4389 4.92104 10.2243 4.91918C10.0098 4.91731 9.80313 4.99978 9.64882 5.14882L6.37609 8.42155C6.22271 8.57498 6.13654 8.78305 6.13654 9C6.13654 9.21695 6.22271 9.42502 6.37609 9.57845L9.64882 12.8512C9.80313 13.0002 10.0098 13.0827 10.2243 13.0808C10.4389 13.079 10.6441 12.9929 10.7958 12.8412C10.9475 12.6895 11.0335 12.4843 11.0354 12.2698C11.0372 12.0553 10.9548 11.8486 10.8057 11.6943L8.11145 9L10.8057 6.30573Z" fill="white" fill-opacity="0.7"/>
</svg>
