<svg width="18" height="19" viewBox="0 0 18 19" fill="none" xmlns="http://www.w3.org/2000/svg">
<path fill-rule="evenodd" clip-rule="evenodd" d="M9 0.500488C13.9705 0.500488 18 4.53003 18 9.50049C18 14.4709 13.9705 18.5005 9 18.5005C4.02955 18.5005 0 14.4709 0 9.50049C0 4.53003 4.02955 0.500488 9 0.500488ZM7.19427 6.80622C7.04523 6.6519 6.96277 6.44523 6.96463 6.23071C6.96649 6.01618 7.05254 5.81097 7.20424 5.65927C7.35594 5.50758 7.56115 5.42153 7.77567 5.41966C7.9902 5.4178 8.19687 5.50027 8.35118 5.64931L11.6239 8.92203C11.7773 9.07547 11.8635 9.28354 11.8635 9.50049C11.8635 9.71744 11.7773 9.92551 11.6239 10.0789L8.35118 13.3517C8.19687 13.5007 7.9902 13.5832 7.77567 13.5813C7.56115 13.5794 7.35594 13.4934 7.20424 13.3417C7.05254 13.19 6.96649 12.9848 6.96463 12.7703C6.96277 12.5557 7.04523 12.3491 7.19427 12.1948L9.88855 9.50049L7.19427 6.80622Z" fill="white" fill-opacity="0.7"/>
</svg>
